<svg width="76" height="95" viewBox="0 0 76 95" fill="none" xmlns="http://www.w3.org/2000/svg">
<path d="M74.4506 60.2702L73.5614 41.1139L73.1106 31.5358V31.2933C73.067 31.1719 72.9825 31.0694 72.8715 31.0031C72.7604 30.9368 72.6297 30.9108 72.5016 30.9296H56.0568L55.4477 16.138C55.3126 13.3566 54.6036 10.6328 53.3647 8.13601C53.1211 7.65104 52.8653 7.19033 52.5851 6.74173C52.0319 5.85859 51.4 5.02677 50.697 4.25628C49.4097 2.8439 47.8253 1.73135 46.0567 0.997896C44.2881 0.264438 42.3787 -0.0718944 40.4647 0.0128033C39.5672 0.0389452 38.6722 0.119904 37.7848 0.255266H37.0539C36.4504 0.154609 35.8383 0.113987 35.2267 0.134016C31.8892 0.0133456 28.6266 1.13755 26.0785 3.28632C25.696 3.62868 25.334 3.99302 24.9943 4.37749C23.9398 5.57603 23.0509 6.90938 22.351 8.34214C21.8674 9.31568 21.4601 10.325 21.1329 11.3611C20.9745 11.8824 20.8284 12.4159 20.7066 12.9493C20.4593 14.039 20.2923 15.1453 20.2071 16.2593L19.3544 28.7472H25.8105V28.6259H25.9201L26.7728 16.138C26.9628 12.0047 28.5025 8.04586 31.1582 4.86249C31.3774 4.62001 31.6089 4.3775 31.8281 4.15927C32.5024 3.04819 33.4704 2.14296 34.6266 1.5425C35.7828 0.942044 37.0826 0.669487 38.3839 0.754583C39.6852 0.839679 40.938 1.27916 42.0053 2.02502C43.0726 2.77088 43.9134 3.79438 44.4358 4.9837C47.0894 8.12111 48.6307 12.0413 48.8211 16.138L49.418 30.8083H4.52969C4.34542 30.8351 4.17476 30.9203 4.04308 31.0514C3.91139 31.1825 3.82574 31.3524 3.79884 31.5358L0.0225809 91.1869C-0.0369223 91.6705 0.0215941 92.1613 0.193138 92.6176C0.368339 93.0756 0.642884 93.4896 0.997148 93.83L1.08243 93.9028C1.41813 94.2733 1.83335 94.5637 2.29729 94.7526C2.76123 94.9415 3.26191 95.024 3.76226 94.9939H72.3433C72.8401 94.9965 73.3326 94.9014 73.7924 94.7141C74.2523 94.5269 74.6705 94.2512 75.0231 93.9028C75.1449 93.7815 75.145 93.6603 75.2668 93.6603C75.3886 93.4178 75.5104 93.2965 75.6322 93.0541C75.8937 92.4842 76.0189 91.8616 75.9977 91.2354V91.1142L74.4506 60.2702ZM21.2182 62.9981C21.2182 61.5234 21.6575 60.0818 22.4807 58.8556C23.3039 57.6294 24.4739 56.6737 25.8428 56.1093C27.2117 55.5449 28.718 55.3973 30.1712 55.685C31.6244 55.9727 32.9593 56.6829 34.007 57.7257C35.0547 58.7685 35.7682 60.097 36.0573 61.5434C36.3463 62.9898 36.1979 64.4891 35.6309 65.8516C35.0639 67.214 34.1037 68.3786 32.8718 69.1979C31.6398 70.0172 30.1914 70.4545 28.7097 70.4545C26.7317 70.4263 24.8426 69.6317 23.4437 68.2394C22.0449 66.8471 21.2465 64.9669 21.2182 62.9981ZM47.7979 3.17721C48.5384 3.75545 49.2235 4.4008 49.8443 5.10495C50.8098 6.20837 51.6286 7.43082 52.2806 8.74222C52.724 9.65908 53.0986 10.6074 53.4012 11.5793C53.8472 13.0877 54.1211 14.6413 54.2174 16.2107L54.8143 30.8811H50.8066L50.1975 16.0895C50.039 11.7019 48.3606 7.50403 45.4469 4.20777C44.1434 2.72066 42.5738 1.48733 40.818 0.570507C41.159 0.570507 41.5001 0.570492 41.8412 0.631113C42.6731 0.730846 43.4906 0.926147 44.2774 1.21309C45.5518 1.66986 46.7414 2.33354 47.7979 3.17721ZM74.7065 91.781C74.6491 92.2453 74.4291 92.6746 74.0852 92.9935C73.8482 93.2345 73.5633 93.4237 73.2486 93.549C72.934 93.6742 72.5967 93.7328 72.258 93.7209H61.2948C60.9704 93.7217 60.6485 93.6643 60.3446 93.5512C60.2008 93.4947 60.0622 93.4257 59.9305 93.345L59.6138 93.1026C59.2052 92.6838 58.9777 92.1223 58.9803 91.5385L56.1786 32.2511H71.8925L74.6943 91.4173C74.7167 91.5372 74.7208 91.6599 74.7065 91.781Z" fill="#fff"/>
</svg>
