<svg xmlns="http://www.w3.org/2000/svg" width="21.254" height="25" viewBox="0 0 21.254 25">
  <g id="cart-white" transform="translate(-0.75)">
    <path id="Path_74" data-name="Path 74" d="M7.421,6.284h7.9V8.668a3.91,3.91,0,0,1-1.157,2.774,3.969,3.969,0,0,1-5.59,0A3.908,3.908,0,0,1,7.421,8.668Z" fill="#fff"/>
    <path id="Path_75" data-name="Path 75" d="M11.373,0A3.968,3.968,0,0,0,8.581,1.149,3.908,3.908,0,0,0,7.42,3.923v2.53H9.055V3.923a2.293,2.293,0,0,1,.7-1.6,2.328,2.328,0,0,1,3.248,0,2.3,2.3,0,0,1,.695,1.6v2.53h1.635V3.924a3.9,3.9,0,0,0-1.159-2.776A3.958,3.958,0,0,0,11.373,0Z" fill="#fff"/>
    <path id="Path_76" data-name="Path 76" d="M22,23.67,20.1,7.343a1.19,1.19,0,0,0-.4-.754,1.208,1.208,0,0,0-.8-.3h-5.2V8.6a2.31,2.31,0,0,1-.684,1.64,2.346,2.346,0,0,1-3.306,0A2.31,2.31,0,0,1,9.036,8.6V6.285H3.844a1.209,1.209,0,0,0-.8.3,1.19,1.19,0,0,0-.394.754L.758,23.671a1.185,1.185,0,0,0,.3.93,1.2,1.2,0,0,0,.9.4H20.8a1.21,1.21,0,0,0,.9-.4,1.19,1.19,0,0,0,.3-.932Z" fill="#fff"/>
  </g>
</svg>
