<svg width="20" height="20" fill="none"
    xmlns="http://www.w3.org/2000/svg">
    <path d="M17.126.842H1.003C.456.842 0 1.298 0 1.845v1.797c0 .56.456 1.003 1.003 1.003h16.123c.56 0 1.003-.456 1.016-1.003V1.858c0-.56-.456-1.016-1.016-1.016zM17.126 10.844H1.003c-.547 0-1.003.443-1.003 1.003v1.798c0 .56.456 1.002 1.003 1.002h16.123c.56 0 1.003-.443 1.016-1.002v-1.798c0-.56-.456-1.003-1.016-1.003zM10.08 15.832H1.003c-.56 0-1.003.456-1.003 1.003v1.797c0 .56.456 1.003 1.003 1.003h9.064c.56 0 1.003-.456 1.003-1.003v-1.797a.984.984 0 00-.99-1.003zM18.142 5.843H1.002C.443 5.843 0 6.3 0 6.846v1.797c0 .56.456 1.003 1.003 1.003h17.126c.56 0 1.003-.456 1.003-1.003V6.846a.992.992 0 00-.99-1.003z" fill="#57584E"></path>
</svg>