<svg width="114" height="20" fill="none" xmlns="http://www.w3.org/2000/svg"><g clip-path="url(#clip0)" fill="#fff"><path d="M16.222 1.906H.95c-.518 0-.95.431-.95.948V4.55c0 .529.432.947.95.947h15.272c.53 0 .95-.43.962-.947V2.866a.962.962 0 00-.962-.96zM16.222 11.353H.95A.949.949 0 000 12.3v1.698c0 .529.432.947.95.947h15.272a.96.96 0 00.962-.947V12.3a.952.952 0 00-.962-.947zM9.548 16.064H.95c-.53 0-.95.43-.95.947v1.698c0 .528.432.947.95.947h8.586c.53 0 .95-.43.95-.947V17.01a.93.93 0 00-.938-.947zM17.184 6.63H.95c-.53 0-.95.43-.95.947v1.697c0 .53.432.947.95.947h16.222c.53 0 .95-.43.95-.947V7.577a.938.938 0 00-.938-.947zM34.961 5.732a5.037 5.037 0 00-1.653-1.12 5.184 5.184 0 00-1.974-.393 4.245 4.245 0 00-1.912.406 3.468 3.468 0 00-1.06.775v-.295a.622.622 0 00-.161-.406.528.528 0 00-.407-.185H25.66a.51.51 0 00-.407.185.565.565 0 00-.16.406v14.01c0 .147.061.295.16.405.11.111.259.16.407.16h2.159a.595.595 0 00.394-.16.497.497 0 00.173-.406V14.33c.309.332.703.578 1.135.725.567.21 1.16.308 1.764.308.691 0 1.37-.123 1.999-.394a4.989 4.989 0 001.677-1.131 5.325 5.325 0 001.135-1.76 5.895 5.895 0 00.42-2.3 6.193 6.193 0 00-.42-2.312 5.558 5.558 0 00-1.135-1.734zm-1.949 5.067a2.377 2.377 0 01-.506.8 2.325 2.325 0 01-1.714.726c-.333 0-.654-.062-.95-.197a2.417 2.417 0 01-.777-.529 2.622 2.622 0 01-.518-.8 2.708 2.708 0 010-1.968c.11-.295.296-.565.518-.787.222-.233.493-.406.777-.541.296-.135.629-.21.95-.197.333 0 .653.062.962.197.284.135.543.308.765.529.222.234.382.492.506.787.234.64.234 1.34-.013 1.98zM48.136 4.514H45.99a.533.533 0 00-.395.172.585.585 0 00-.173.419v.258a3.006 3.006 0 00-.974-.738 4.16 4.16 0 00-1.875-.406 5.29 5.29 0 00-3.689 1.5A5.53 5.53 0 0037.7 7.48a5.681 5.681 0 00-.444 2.312 5.761 5.761 0 00.444 2.312 5.634 5.634 0 001.172 1.76 5.096 5.096 0 003.676 1.512 4.176 4.176 0 001.887-.406c.37-.184.716-.43.987-.738v.283c0 .148.062.295.173.406.111.098.247.16.395.16h2.146a.626.626 0 00.407-.16.546.546 0 00.16-.406v-9.41a.565.565 0 00-.16-.405.51.51 0 00-.407-.185zm-2.899 6.273a2.377 2.377 0 01-.506.8 2.782 2.782 0 01-.764.54c-.605.271-1.308.271-1.913 0a2.6 2.6 0 01-.777-.54 2.38 2.38 0 01-.506-.8 2.809 2.809 0 010-1.956 2.33 2.33 0 01.506-.787 2.67 2.67 0 01.777-.541 2.354 2.354 0 011.913 0c.283.135.542.308.764.529.21.234.383.492.506.787a2.71 2.71 0 010 1.968zM69.54 9.52a3.494 3.494 0 00-1.049-.627 7.386 7.386 0 00-1.258-.369l-1.64-.32c-.42-.074-.716-.184-.877-.32a.508.508 0 01-.222-.406c0-.172.1-.32.309-.442.284-.148.592-.222.913-.197.42 0 .839.086 1.221.246.37.16.74.344 1.073.566.481.295.888.246 1.172-.086l.79-.886a.85.85 0 00.246-.554.756.756 0 00-.296-.553c-.333-.283-.863-.59-1.566-.886-.703-.295-1.592-.455-2.64-.455a6.148 6.148 0 00-1.888.27 4.583 4.583 0 00-1.443.739 3.27 3.27 0 00-.925 1.12c-.21.43-.321.897-.321 1.364 0 .874.271 1.587.802 2.116.53.529 1.233.873 2.11 1.046l1.702.369c.37.061.74.172 1.085.332a.5.5 0 01.309.467c0 .185-.099.357-.309.504-.21.148-.555.246-.999.246a2.981 2.981 0 01-1.345-.295 4.943 4.943 0 01-1.098-.713 1.485 1.485 0 00-.493-.27c-.197-.062-.432 0-.69.208l-.938.701a.812.812 0 00-.334.812c.05.308.309.615.79.972a7.011 7.011 0 004.01 1.168 6.627 6.627 0 001.96-.27 4.994 4.994 0 001.518-.75c.407-.308.753-.702.987-1.157.222-.443.346-.935.346-1.439a2.945 2.945 0 00-.272-1.304 3.327 3.327 0 00-.74-.947zM78.915 12.079a.623.623 0 00-.468-.308.987.987 0 00-.556.172c-.148.099-.32.173-.493.222a1.38 1.38 0 01-.382.061c-.1 0-.21-.012-.309-.037a.572.572 0 01-.283-.147 1.024 1.024 0 01-.235-.32 1.48 1.48 0 01-.099-.566V7.32h2.788a.63.63 0 00.432-.185.548.548 0 00.185-.406V5.105a.55.55 0 00-.185-.419.61.61 0 00-.42-.172h-2.787v-2.62a.522.522 0 00-.173-.418.595.595 0 00-.395-.16h-2.17a.598.598 0 00-.42.16.597.597 0 00-.185.418v2.62h-1.234a.51.51 0 00-.407.185.622.622 0 00-.16.406v1.623c0 .148.061.295.16.406a.476.476 0 00.407.185h1.234v4.563a3.64 3.64 0 00.32 1.574c.198.406.481.763.827 1.058.345.283.752.48 1.172.603.432.135.888.197 1.345.197.604 0 1.196-.099 1.764-.283.53-.172.999-.468 1.394-.861a.707.707 0 00.074-.91l-.74-1.181zM90.672 4.514h-2.147a.533.533 0 00-.394.172.585.585 0 00-.173.419v.258a3.006 3.006 0 00-.975-.738 4.176 4.176 0 00-1.887-.406 5.239 5.239 0 00-3.676 1.5 5.335 5.335 0 00-1.185 1.76 5.662 5.662 0 00-.444 2.3 5.76 5.76 0 00.444 2.312 5.634 5.634 0 001.172 1.759 5.13 5.13 0 003.664 1.525 4.334 4.334 0 001.888-.393c.37-.185.715-.431.987-.739v.271c0 .148.061.295.172.406.099.098.247.16.395.16h2.159a.563.563 0 00.567-.554V5.104a.565.565 0 00-.16-.405.51.51 0 00-.407-.185zm-2.9 6.273a2.378 2.378 0 01-.505.8 2.784 2.784 0 01-.765.54c-.296.136-.629.21-.962.198-.333 0-.654-.074-.95-.197a2.598 2.598 0 01-.777-.541 2.377 2.377 0 01-.506-.8 2.808 2.808 0 010-1.956c.111-.295.284-.553.506-.787.222-.221.481-.406.777-.541.296-.135.617-.197.95-.197.333 0 .654.062.962.197.284.135.543.308.765.529.222.234.395.492.506.787.259.64.259 1.34 0 1.968zM102.453 11.943l-1.233-.934c-.235-.185-.457-.234-.654-.16a1.336 1.336 0 00-.457.32c-.271.32-.58.602-.937.836-.37.209-.777.307-1.197.283a2.323 2.323 0 01-1.715-.726 2.552 2.552 0 01-.493-.8 2.864 2.864 0 01-.173-.959c0-.332.05-.664.173-.984.111-.295.271-.566.493-.787.222-.221.482-.406.765-.529.296-.135.63-.21.962-.21.42-.011.84.087 1.197.296.358.234.666.504.938.837.123.135.271.246.444.32.197.073.419.024.641-.16l1.234-.923a.778.778 0 00.321-.418.653.653 0 00-.05-.566 5.311 5.311 0 00-1.899-1.759c-.815-.455-1.79-.689-2.875-.689-.765 0-1.53.148-2.233.43a5.561 5.561 0 00-1.813 1.182 5.27 5.27 0 00-1.21 1.77 5.76 5.76 0 000 4.392c.285.664.692 1.267 1.21 1.759a5.77 5.77 0 004.046 1.611c1.086 0 2.06-.234 2.875-.689a5.278 5.278 0 001.912-1.77.63.63 0 00.049-.554.84.84 0 00-.321-.419zM113.877 14.133l-3.393-4.908 2.899-3.776a.692.692 0 00.124-.615c-.05-.148-.186-.308-.543-.308h-2.295c-.136 0-.259.037-.382.087a.76.76 0 00-.333.32l-2.32 3.197h-.555V.566a.565.565 0 00-.16-.406.569.569 0 00-.407-.16h-2.147a.626.626 0 00-.407.16.51.51 0 00-.172.406v13.948c0 .16.061.308.172.406.111.11.259.16.407.16h2.147a.626.626 0 00.407-.16.565.565 0 00.16-.406v-3.69h.617l2.529 3.825c.148.271.432.443.74.443h2.406c.37 0 .518-.172.58-.32a.663.663 0 00-.074-.64zM60.337 4.514h-2.406a.624.624 0 00-.48.185.84.84 0 00-.223.393l-1.776 6.52h-.432l-1.9-6.52a1.097 1.097 0 00-.185-.381.553.553 0 00-.431-.197h-2.492c-.321 0-.519.099-.605.308a.926.926 0 000 .578l3.047 9.163c.05.136.123.27.235.37.123.11.283.171.456.16h1.283l-.111.294-.284.85a1.402 1.402 0 01-.469.663 1.16 1.16 0 01-.715.234 1.62 1.62 0 01-.642-.135 2.635 2.635 0 01-.567-.332.948.948 0 00-.543-.173h-.025a.667.667 0 00-.542.333l-.765 1.107c-.309.48-.136.787.062.959a3.91 3.91 0 001.418.824c.58.197 1.197.295 1.814.295 1.098 0 2.023-.295 2.726-.885a5.052 5.052 0 001.542-2.386L60.855 5.4a.846.846 0 00.013-.603c-.062-.135-.198-.283-.53-.283z"/></g><defs><clipPath id="clip0"><path fill="#fff" d="M0 0h114v20H0z"/></clipPath></defs></svg>