<svg width="20" height="20" viewBox="0 0 20 20" fill="none"
    xmlns="http://www.w3.org/2000/svg">
    <path d="M14.1665 1.66676H5.83317C3.53198 1.66676 1.6665 3.53224 1.6665 5.83343V14.1668C1.6665 16.468 3.53198 18.3334 5.83317 18.3334H14.1665C16.4677 18.3334 18.3332 16.468 18.3332 14.1668V5.83343C18.3332 3.53224 16.4677 1.66676 14.1665 1.66676Z" stroke="#57584E" stroke-width="2" stroke-linecap="round" stroke-linejoin="round"></path>
    <path d="M13.3333 9.47495C13.4361 10.1685 13.3176 10.8768 12.9947 11.4991C12.6718 12.1215 12.1609 12.6261 11.5346 12.9413C10.9083 13.2566 10.1986 13.3663 9.50641 13.2549C8.81419 13.1435 8.17472 12.8167 7.67895 12.3209C7.18318 11.8251 6.85636 11.1857 6.74497 10.4935C6.63359 9.80124 6.74331 9.09152 7.05852 8.46526C7.37374 7.83899 7.87841 7.32806 8.50074 7.00515C9.12307 6.68223 9.83138 6.56377 10.5249 6.66661C11.2324 6.77152 11.8873 7.10117 12.393 7.60687C12.8987 8.11257 13.2284 8.76751 13.3333 9.47495Z" stroke="#57584E" stroke-width="2" stroke-linecap="round" stroke-linejoin="round"></path>
    <path d="M14.5835 5.41676H14.5918" stroke="#57584E" stroke-width="2" stroke-linecap="round" stroke-linejoin="round"></path>
</svg>