<svg xmlns="http://www.w3.org/2000/svg" xmlns:xlink="http://www.w3.org/1999/xlink" width="20" height="20" viewBox="0 0 20 20">
  <defs>
    <clipPath id="clip-path">
      <rect id="Rectangle_5" data-name="Rectangle 5" width="20" height="20" fill="#fff"/>
    </clipPath>
  </defs>
  <g id="twitter-white" clip-path="url(#clip-path)">
    <path id="Path_80" data-name="Path 80" d="M20,2.009A9.91,9.91,0,0,1,17.146,3.4,4.073,4.073,0,0,0,10,6.128v.909A9.691,9.691,0,0,1,5.392,6.005,9.691,9.691,0,0,1,1.819,2.918S-1.818,11.1,6.364,14.737A10.582,10.582,0,0,1,0,16.555c8.182,4.545,18.182,0,18.182-10.455a4.091,4.091,0,0,0-.073-.755A7.018,7.018,0,0,0,20,2.009Z" fill="#fff"/>
  </g>
</svg>
