<svg
  width="20"
  height="20"
  viewBox="0 0 20 20"
  fill="none"
  xmlns="http://www.w3.org/2000/svg"
>
  <g clipPath="url(#clip0)">
    <path
      d="M20.0005 2.00939C19.1299 2.62346 18.166 3.09312 17.1459 3.4003C16.5984 2.77076 15.8708 2.32456 15.0614 2.12205C14.2521 1.91953 13.4 1.97047 12.6206 2.26798C11.8411 2.56549 11.1718 3.09521 10.7032 3.78549C10.2346 4.47578 9.9893 5.29333 10.0005 6.12757V7.03666C8.40288 7.07808 6.81983 6.72376 5.39231 6.00525C3.9648 5.28673 2.73714 4.22633 1.81867 2.91848C1.81867 2.91848 -1.81769 11.1003 6.36412 14.7367C4.49188 16.0075 2.26154 16.6448 0.000488281 16.5548C8.18231 21.1003 18.1823 16.5548 18.1823 6.1003C18.1815 5.84707 18.1571 5.59447 18.1096 5.34575C19.0374 4.43074 19.6922 3.27549 20.0005 2.00939Z"
      fill="#909090"
    />
  </g>
  <defs>
    <clipPath id="clip0">
      <rect width="20" height="20" fill="#909090" />
    </clipPath>
  </defs>
</svg>
