<svg
  width="20"
  height="20"
  viewBox="0 0 20 20"
  fill="none"
  xmlns="http://www.w3.org/2000/svg"
>
  <path
    d="M1.07528 9.91926C1.07474 11.4912 1.48731 13.0258 2.27155 14.3784L1 19L5.75112 17.7598C7.0602 18.4705 8.53395 18.845 10.0339 18.8457H10.0377C14.9769 18.8457 18.9979 14.8438 19 9.92618C19.0008 7.5427 18.0693 5.3017 16.3773 3.61585C14.6851 1.92999 12.4351 1.00103 10.0377 1C5.09747 1 1.0772 5.00105 1.07513 9.91897L1.07528 9.91926ZM3.90446 14.1453L3.72711 13.8649C2.98134 12.6845 2.58773 11.3203 2.58827 9.91965C2.5899 5.83218 5.93144 2.5065 10.0403 2.5065C12.0301 2.50727 13.9002 3.27952 15.3068 4.68065C16.7133 6.08188 17.4873 7.94461 17.4867 9.92546C17.4849 14.0132 14.1433 17.3391 10.0375 17.3391H10.0346C8.69771 17.3383 7.38662 16.9811 6.24321 16.3056L5.97107 16.145L3.15156 16.8809L3.90446 14.1453ZM10.0377 18.8457H10.0378H10.0377C10.0376 18.8457 10.0375 18.8457 10.0377 18.8457Z"
    fill="#909090"
  />
  <path
    fillRule="evenodd"
    clipRule="evenodd"
    d="M7.79742 6.18918C7.62964 5.8179 7.45311 5.81047 7.29353 5.80394C7.16293 5.79841 7.01357 5.79877 6.86438 5.79877C6.71501 5.79877 6.4724 5.85457 6.26725 6.07766C6.06192 6.30077 5.4834 6.84007 5.4834 7.93689C5.4834 9.03382 6.28596 10.0937 6.39776 10.2426C6.50977 10.3912 7.947 12.7141 10.223 13.6076C12.1147 14.3503 12.4997 14.2025 12.9102 14.1653C13.3208 14.1282 14.2352 13.6262 14.4217 13.1056C14.6084 12.5851 14.6084 12.1389 14.5524 12.0457C14.4965 11.9528 14.3471 11.897 14.1232 11.7856C13.8991 11.6741 12.7982 11.1347 12.593 11.0603C12.3877 10.986 12.2384 10.9489 12.089 11.1721C11.9397 11.395 11.5108 11.897 11.3801 12.0457C11.2495 12.1947 11.1189 12.2133 10.8949 12.1018C10.6709 11.9899 9.94967 11.7548 9.09407 10.9954C8.42833 10.4044 7.97892 9.67471 7.84823 9.4515C7.71763 9.22857 7.83429 9.10782 7.94657 8.99666C8.04718 8.89677 8.17058 8.73636 8.28259 8.60625C8.39432 8.47606 8.4316 8.38315 8.50624 8.23444C8.58097 8.08564 8.54361 7.95544 8.48765 7.84393C8.4316 7.73242 7.99641 6.62996 7.79729 6.18911"
    fill="#909090"
  />
</svg>
